<svg width="232" height="72" viewBox="0 0 232 72" fill="none" xmlns="http://www.w3.org/2000/svg">
<path d="M74.0301 35.8916C72.9016 36.5136 71.5329 37.0051 69.9238 37.3662C68.3147 37.7273 66.6429 37.9079 64.9084 37.9079C62.5679 37.9079 60.5722 37.637 58.9213 37.0954C57.2913 36.5537 56.0584 35.8014 55.2225 34.8384C54.4075 33.8754 54 32.7619 54 31.498C54 30.3946 54.3135 29.4216 54.9404 28.579C55.5673 27.7364 56.4345 27.0843 57.5421 26.6229C56.6853 26.2016 56.027 25.6198 55.5673 24.8775C55.1285 24.1151 54.909 23.2826 54.909 22.3798C54.909 21.2162 55.2852 20.1529 56.0375 19.1899C56.8107 18.2269 57.9809 17.4545 59.5482 16.8727C61.1155 16.2909 63.0485 16 65.3472 16C66.7892 16 68.2102 16.1304 69.6103 16.3912C71.0104 16.652 72.2434 17.0031 73.3091 17.4445L71.6164 21.8983C69.673 21.0757 67.6669 20.6645 65.598 20.6645C64.1143 20.6645 63.0067 20.855 62.2753 21.2362C61.5439 21.5973 61.1782 22.1089 61.1782 22.771C61.1782 23.9747 62.0873 24.5766 63.9053 24.5766H70.1118V29.1207H63.4978C62.4321 29.1207 61.6275 29.2912 61.0842 29.6322C60.5409 29.9532 60.2692 30.4347 60.2692 31.0767C60.2692 31.7588 60.6662 32.2905 61.4603 32.6717C62.2544 33.0528 63.4874 33.2434 65.1592 33.2434C66.3503 33.2434 67.5728 33.093 68.8267 32.792C70.1014 32.471 71.209 32.0397 72.1493 31.498L74.0301 35.8916Z" fill="white"/>
<path d="M90.006 28.9401C91.9495 29.562 92.9212 30.846 92.9212 32.792C92.9212 34.2566 92.3256 35.4101 91.1345 36.2528C89.9433 37.0753 88.1879 37.4866 85.8683 37.4866H76.3078V21.176H85.4295C87.6446 21.176 89.3582 21.5472 90.5702 22.2895C91.8032 23.0318 92.4197 24.075 92.4197 25.4192C92.4197 26.2016 92.2107 26.8938 91.7927 27.4956C91.3748 28.0975 90.7792 28.579 90.006 28.9401ZM81.6366 27.7364H84.8966C86.2758 27.7364 86.9655 27.2448 86.9655 26.2618C86.9655 25.3189 86.2758 24.8474 84.8966 24.8474H81.6366V27.7364ZM85.3355 33.7851C86.7774 33.7851 87.4983 33.2836 87.4983 32.2804C87.4983 31.2773 86.7983 30.7758 85.3982 30.7758H81.6366V33.7851H85.3355Z" fill="white"/>
<path d="M103.892 31.6786H101.885V37.4866H95.9297V21.176H101.885V27.1947H104.017L108.186 21.176H114.487L108.782 29.0003L114.863 37.4866H107.841L103.892 31.6786Z" fill="white"/>
<path d="M134.14 21.176V37.4866H128.184V25.7201H123.89L123.765 28.2179C123.681 30.3444 123.462 32.0999 123.106 33.4842C122.751 34.8685 122.166 35.9518 121.351 36.7342C120.536 37.4966 119.418 37.8778 117.997 37.8778C117.266 37.8778 116.304 37.7474 115.113 37.4866L115.364 32.8221C115.74 32.8622 115.991 32.8823 116.116 32.8823C116.764 32.8823 117.255 32.6817 117.59 32.2804C117.924 31.8792 118.154 31.3476 118.279 30.6855C118.405 30.0034 118.488 29.1006 118.53 27.9771L118.781 21.176H134.14Z" fill="white"/>
<path d="M155.634 21.176V37.4866H149.96V35.7713C149.333 36.4132 148.581 36.9048 147.703 37.2458C146.846 37.5869 145.927 37.7574 144.945 37.7574C142.73 37.7574 140.964 37.1355 139.647 35.8916C138.352 34.6478 137.704 32.782 137.704 30.2943V21.176H143.66V29.3614C143.66 31.7087 144.61 32.8823 146.512 32.8823C147.452 32.8823 148.215 32.5713 148.8 31.9494C149.385 31.3074 149.678 30.3344 149.678 29.0304V21.176H155.634Z" fill="white"/>
<path d="M177.718 21.176V34.5073C177.718 37.5367 176.862 39.8038 175.148 41.3084C173.435 42.8331 170.969 43.5955 167.75 43.5955C166.079 43.5955 164.511 43.4149 163.049 43.0538C161.586 42.6927 160.342 42.1611 159.318 41.4589L161.481 37.4565C162.171 37.9982 163.038 38.4195 164.083 38.7204C165.149 39.0414 166.194 39.2019 167.218 39.2019C168.785 39.2019 169.934 38.8709 170.666 38.2088C171.397 37.5468 171.763 36.5637 171.763 35.2597V34.718C170.613 36.002 168.931 36.644 166.716 36.644C165.211 36.644 163.822 36.323 162.547 35.681C161.272 35.0189 160.259 34.0961 159.506 32.9124C158.754 31.7087 158.378 30.3244 158.378 28.7595C158.378 27.2147 158.754 25.8505 159.506 24.6669C160.259 23.4631 161.272 22.5403 162.547 21.8983C163.822 21.2362 165.211 20.9052 166.716 20.9052C169.14 20.9052 170.916 21.6575 172.045 23.1622V21.176H177.718ZM168.127 32.0999C169.192 32.0999 170.07 31.7889 170.76 31.167C171.47 30.5451 171.825 29.7426 171.825 28.7595C171.825 27.7765 171.481 26.984 170.791 26.3822C170.101 25.7602 169.213 25.4493 168.127 25.4493C167.04 25.4493 166.141 25.7602 165.431 26.3822C164.741 26.984 164.396 27.7765 164.396 28.7595C164.396 29.7426 164.752 30.5451 165.462 31.167C166.173 31.7889 167.061 32.0999 168.127 32.0999Z" fill="white"/>
<path d="M63.663 45.4572V55.2782H60.7987V47.6599H56.9114V55.2782H54.0616V45.4572H63.663Z" fill="white"/>
<path d="M69.9272 47.5477C70.7943 47.5477 71.5494 47.7067 72.1924 48.0247C72.8354 48.3427 73.3274 48.801 73.6684 49.3996C74.0191 49.9889 74.1945 50.681 74.1945 51.4761C74.1945 52.2617 74.0337 52.9539 73.7122 53.5525C73.3907 54.1418 72.9377 54.6001 72.3531 54.9274C71.7686 55.2455 71.0914 55.4045 70.3218 55.4045C69.4157 55.4045 68.7045 55.1379 68.1881 54.6047V58H65.4115V51.5041C65.4115 50.7185 65.5966 50.0263 65.9668 49.4277C66.337 48.8291 66.8631 48.3661 67.5451 48.0387C68.2271 47.7114 69.0211 47.5477 69.9272 47.5477ZM69.7957 53.2859C70.2925 53.2859 70.692 53.1222 70.994 52.7949C71.3058 52.4582 71.4617 52.0186 71.4617 51.4761C71.4617 50.9336 71.3058 50.4986 70.994 50.1713C70.692 49.8346 70.2925 49.6662 69.7957 49.6662C69.2988 49.6662 68.8993 49.8346 68.5973 50.1713C68.2953 50.4986 68.1443 50.9336 68.1443 51.4761C68.1443 52.0279 68.2904 52.4675 68.5827 52.7949C68.8847 53.1222 69.2891 53.2859 69.7957 53.2859Z" fill="white"/>
<path d="M79.4384 55.4045C78.5908 55.4045 77.826 55.2361 77.144 54.8994C76.462 54.5627 75.9262 54.095 75.5365 53.4964C75.1565 52.8978 74.9665 52.2197 74.9665 51.462C74.9665 50.7138 75.1565 50.0403 75.5365 49.4417C75.9262 48.8431 76.4571 48.3801 77.1294 48.0528C77.8114 47.716 78.5811 47.5477 79.4384 47.5477C80.2958 47.5477 81.0654 47.716 81.7474 48.0528C82.4294 48.3801 82.9604 48.8431 83.3403 49.4417C83.7203 50.031 83.9103 50.7044 83.9103 51.462C83.9103 52.2197 83.7203 52.8978 83.3403 53.4964C82.9604 54.095 82.4294 54.5627 81.7474 54.8994C81.0654 55.2361 80.2958 55.4045 79.4384 55.4045ZM79.4384 53.2859C79.9255 53.2859 80.325 53.1269 80.6368 52.8089C80.9485 52.4815 81.1044 52.0326 81.1044 51.462C81.1044 50.9008 80.9485 50.4612 80.6368 50.1432C80.325 49.8252 79.9255 49.6662 79.4384 49.6662C78.9513 49.6662 78.5518 49.8252 78.2401 50.1432C77.9283 50.4612 77.7724 50.9008 77.7724 51.462C77.7724 52.0326 77.9283 52.4815 78.2401 52.8089C78.5518 53.1269 78.9513 53.2859 79.4384 53.2859Z" fill="white"/>
<path d="M89.4068 53.3701C89.7867 53.3701 90.1131 53.3187 90.3859 53.2158C90.6684 53.1129 90.951 52.9445 91.2335 52.7107L92.6803 54.1698C91.9301 54.9929 90.8097 55.4045 89.3191 55.4045C88.3935 55.4045 87.58 55.2361 86.8785 54.8994C86.1771 54.5627 85.6315 54.095 85.2418 53.4964C84.8618 52.8978 84.6718 52.2197 84.6718 51.462C84.6718 50.7138 84.8618 50.045 85.2418 49.4558C85.6217 48.8571 86.143 48.3895 86.8055 48.0528C87.4777 47.716 88.2279 47.5477 89.056 47.5477C89.8257 47.5477 90.5272 47.702 91.1604 48.0107C91.8035 48.31 92.3149 48.7543 92.6949 49.3435C93.0749 49.9234 93.2649 50.6156 93.2649 51.4199L87.6092 52.4582C87.9113 53.0661 88.5104 53.3701 89.4068 53.3701ZM89.0706 49.4417C88.5932 49.4417 88.2035 49.5867 87.9015 49.8767C87.5995 50.1573 87.429 50.5641 87.39 51.0973L90.6051 50.494C90.5077 50.176 90.3226 49.9234 90.0498 49.7364C89.777 49.5399 89.4506 49.4417 89.0706 49.4417Z" fill="white"/>
<path d="M98.3009 52.5704H97.3656V55.2782H94.5889V47.6739H97.3656V50.4799H98.3593L100.303 47.6739H103.24L100.581 51.3217L103.416 55.2782H100.142L98.3009 52.5704Z" fill="white"/>
<path d="M114.654 47.5477C115.628 47.5477 116.403 47.8283 116.977 48.3895C117.562 48.9507 117.854 49.7972 117.854 50.9289V55.2782H115.078V51.3638C115.078 50.8307 114.97 50.4379 114.756 50.1853C114.552 49.9328 114.259 49.8065 113.879 49.8065C113.46 49.8065 113.124 49.9468 112.871 50.2274C112.618 50.508 112.491 50.9336 112.491 51.5041V55.2782H109.714V51.3638C109.714 50.3256 109.315 49.8065 108.516 49.8065C108.087 49.8065 107.746 49.9468 107.493 50.2274C107.24 50.508 107.113 50.9336 107.113 51.5041V55.2782H104.336V47.6739H106.981V48.4737C107.274 48.165 107.62 47.9358 108.019 47.7862C108.428 47.6272 108.872 47.5477 109.349 47.5477C109.904 47.5477 110.401 47.6459 110.84 47.8423C111.278 48.0387 111.634 48.338 111.906 48.7402C112.218 48.3567 112.613 48.0621 113.09 47.8563C113.568 47.6506 114.089 47.5477 114.654 47.5477Z" fill="white"/>
<path d="M119.535 47.6739H122.298V50.494H125.147V47.6739H127.924V55.2782H125.147V52.6125H122.298V55.2782H119.535V47.6739Z" fill="white"/>
<path d="M133.567 55.5027C130.946 55.5027 129.636 54.4224 129.636 52.2617V47.6739H132.398V50.0871C132.603 49.9562 132.875 49.8486 133.216 49.7644C133.567 49.6802 133.967 49.6381 134.415 49.6381C135.389 49.6381 136.154 49.8767 136.709 50.3537C137.264 50.8213 137.542 51.5182 137.542 52.4441C137.542 53.4449 137.182 54.2072 136.461 54.731C135.749 55.2454 134.785 55.5027 133.567 55.5027ZM138.2 47.6739H140.976V55.2782H138.2V47.6739ZM133.567 53.6788C133.947 53.6788 134.234 53.5712 134.429 53.3561C134.624 53.141 134.722 52.8557 134.722 52.5003C134.722 52.1542 134.624 51.8829 134.429 51.6865C134.234 51.4901 133.952 51.3919 133.582 51.3919C133.319 51.3919 133.085 51.4387 132.88 51.5322C132.676 51.6257 132.515 51.752 132.398 51.911V52.5003C132.398 52.865 132.495 53.155 132.69 53.3701C132.885 53.5759 133.177 53.6788 133.567 53.6788Z" fill="white"/>
<path d="M147.035 53.3701C147.415 53.3701 147.741 53.3187 148.014 53.2158C148.297 53.1129 148.579 52.9445 148.862 52.7107L150.309 54.1698C149.558 54.9929 148.438 55.4045 146.947 55.4045C146.022 55.4045 145.208 55.2361 144.507 54.8994C143.805 54.5627 143.26 54.095 142.87 53.4964C142.49 52.8978 142.3 52.2197 142.3 51.462C142.3 50.7138 142.49 50.045 142.87 49.4558C143.25 48.8571 143.771 48.3895 144.434 48.0528C145.106 47.716 145.856 47.5477 146.684 47.5477C147.454 47.5477 148.155 47.702 148.789 48.0107C149.432 48.31 149.943 48.7543 150.323 49.3435C150.703 49.9234 150.893 50.6156 150.893 51.4199L145.238 52.4582C145.54 53.0661 146.139 53.3701 147.035 53.3701ZM146.699 49.4417C146.222 49.4417 145.832 49.5867 145.53 49.8767C145.228 50.1573 145.057 50.5641 145.018 51.0973L148.233 50.494C148.136 50.176 147.951 49.9234 147.678 49.7364C147.405 49.5399 147.079 49.4417 146.699 49.4417Z" fill="white"/>
<path d="M160.445 55.4045C159.568 55.4045 158.784 55.2361 158.092 54.8994C157.401 54.5627 156.86 54.095 156.47 53.4964C156.09 52.8978 155.9 52.2197 155.9 51.462C155.9 50.7044 156.09 50.031 156.47 49.4417C156.86 48.8431 157.401 48.3801 158.092 48.0528C158.784 47.716 159.568 47.5477 160.445 47.5477C161.341 47.5477 162.116 47.7347 162.769 48.1089C163.422 48.4737 163.884 48.9834 164.157 49.6381L162.009 50.6904C161.648 50.0076 161.122 49.6662 160.431 49.6662C159.934 49.6662 159.52 49.8252 159.188 50.1432C158.867 50.4612 158.706 50.9008 158.706 51.462C158.706 52.0326 158.867 52.4815 159.188 52.8089C159.52 53.1269 159.934 53.2859 160.431 53.2859C161.122 53.2859 161.648 52.9445 162.009 52.2617L164.157 53.314C163.884 53.9687 163.422 54.4832 162.769 54.8573C162.116 55.2221 161.341 55.4045 160.445 55.4045Z" fill="white"/>
<path d="M173.473 47.6739V55.2782H170.828V54.4785C170.536 54.7778 170.185 55.0069 169.776 55.1659C169.376 55.325 168.948 55.4045 168.49 55.4045C167.457 55.4045 166.634 55.1145 166.02 54.5346C165.416 53.9547 165.114 53.0848 165.114 51.925V47.6739H167.891V51.4901C167.891 52.5844 168.334 53.1316 169.22 53.1316C169.659 53.1316 170.014 52.9866 170.287 52.6967C170.56 52.3974 170.696 51.9437 170.696 51.3358V47.6739H173.473Z" fill="white"/>
<path d="M179.312 55.4045C178.435 55.4045 177.651 55.2361 176.959 54.8994C176.267 54.5627 175.727 54.095 175.337 53.4964C174.957 52.8978 174.767 52.2197 174.767 51.462C174.767 50.7044 174.957 50.031 175.337 49.4417C175.727 48.8431 176.267 48.3801 176.959 48.0528C177.651 47.716 178.435 47.5477 179.312 47.5477C180.208 47.5477 180.983 47.7347 181.636 48.1089C182.288 48.4737 182.751 48.9834 183.024 49.6381L180.876 50.6904C180.515 50.0076 179.989 49.6662 179.297 49.6662C178.801 49.6662 178.386 49.8252 178.055 50.1432C177.734 50.4612 177.573 50.9008 177.573 51.462C177.573 52.0326 177.734 52.4815 178.055 52.8089C178.386 53.1269 178.801 53.2859 179.297 53.2859C179.989 53.2859 180.515 52.9445 180.876 52.2617L183.024 53.314C182.751 53.9687 182.288 54.4832 181.636 54.8573C180.983 55.2221 180.208 55.4045 179.312 55.4045Z" fill="white"/>
<path d="M194.503 47.5477C195.477 47.5477 196.252 47.8283 196.826 48.3895C197.411 48.9507 197.703 49.7972 197.703 50.9289V55.2782H194.927V51.3638C194.927 50.8307 194.819 50.4379 194.605 50.1853C194.401 49.9328 194.108 49.8065 193.728 49.8065C193.309 49.8065 192.973 49.9468 192.72 50.2274C192.467 50.508 192.34 50.9336 192.34 51.5041V55.2782H189.563V51.3638C189.563 50.3256 189.164 49.8065 188.365 49.8065C187.936 49.8065 187.595 49.9468 187.342 50.2274C187.089 50.508 186.962 50.9336 186.962 51.5041V55.2782H184.185V47.6739H186.83V48.4737C187.123 48.165 187.469 47.9358 187.868 47.7862C188.277 47.6272 188.721 47.5477 189.198 47.5477C189.753 47.5477 190.25 47.6459 190.689 47.8423C191.127 48.0387 191.483 48.338 191.755 48.7402C192.067 48.3567 192.462 48.0621 192.939 47.8563C193.417 47.6506 193.938 47.5477 194.503 47.5477Z" fill="white"/>
<path d="M203.579 53.3701C203.959 53.3701 204.285 53.3187 204.558 53.2158C204.84 53.1129 205.123 52.9445 205.405 52.7107L206.852 54.1698C206.102 54.9929 204.982 55.4045 203.491 55.4045C202.565 55.4045 201.752 55.2361 201.05 54.8994C200.349 54.5627 199.803 54.095 199.414 53.4964C199.034 52.8978 198.844 52.2197 198.844 51.462C198.844 50.7138 199.034 50.045 199.414 49.4558C199.794 48.8571 200.315 48.3895 200.977 48.0528C201.65 47.716 202.4 47.5477 203.228 47.5477C203.998 47.5477 204.699 47.702 205.332 48.0107C205.975 48.31 206.487 48.7543 206.867 49.3435C207.247 49.9234 207.437 50.6156 207.437 51.4199L201.781 52.4582C202.083 53.0661 202.682 53.3701 203.579 53.3701ZM203.243 49.4417C202.765 49.4417 202.376 49.5867 202.073 49.8767C201.771 50.1573 201.601 50.5641 201.562 51.0973L204.777 50.494C204.68 50.176 204.495 49.9234 204.222 49.7364C203.949 49.5399 203.623 49.4417 203.243 49.4417Z" fill="white"/>
<path d="M216.448 55.2782V51.2796L214.416 54.6047H213.233L211.26 51.2235V55.2782H208.761V47.6739H211.684L213.89 51.6444L216.316 47.6739H218.932L218.947 55.2782H216.448Z" fill="white"/>
<path d="M224.591 55.5027C221.97 55.5027 220.66 54.4224 220.66 52.2617V47.6739H223.422V50.0871C223.626 49.9562 223.899 49.8486 224.24 49.7644C224.591 49.6802 224.99 49.6381 225.438 49.6381C226.413 49.6381 227.177 49.8767 227.733 50.3537C228.288 50.8213 228.566 51.5182 228.566 52.4441C228.566 53.4449 228.205 54.2072 227.484 54.731C226.773 55.2454 225.809 55.5027 224.591 55.5027ZM229.223 47.6739H232V55.2782H229.223V47.6739ZM224.591 53.6788C224.971 53.6788 225.258 53.5712 225.453 53.3561C225.648 53.141 225.745 52.8557 225.745 52.5003C225.745 52.1542 225.648 51.8829 225.453 51.6865C225.258 51.4901 224.976 51.3919 224.605 51.3919C224.342 51.3919 224.108 51.4387 223.904 51.5322C223.699 51.6257 223.538 51.752 223.422 51.911V52.5003C223.422 52.865 223.519 53.155 223.714 53.3701C223.909 53.5759 224.201 53.6788 224.591 53.6788Z" fill="white"/>
<path d="M9.34478 42.7145L17.3505 24.2755H20.0363V29.4921L14.3548 42.7145H18.5901V40.3386C18.5901 39.7601 19.5542 39.7188 20.0363 39.7704V47.0531C18.7141 47.0531 18.5212 46.6054 18.5901 46.3816V44.3156H13.5801L1.18409 72H0.719238L3.86988 62.4447C3.86988 62.4447 1.08079 61.3601 2.01049 59.0359C2.94018 56.7116 8.51838 44.3156 8.51838 44.3156H2.01049V42.7145H9.34478Z" fill="#FF9900"/>
<path d="M30.2113 42.7145L22.2056 24.2755H19.5198V29.4921L25.2013 42.7145H20.966V40.3386C20.966 39.7601 20.0019 39.7188 19.5198 39.7704V47.0531C20.8421 47.0531 21.0349 46.6054 20.966 46.3816V44.3156H25.9761L38.372 72H38.8369L35.6862 62.4447C35.6862 62.4447 38.4753 61.3601 37.5456 59.0359C36.6159 56.7116 31.0377 44.3156 31.0377 44.3156H37.5456V42.7145H30.2113Z" fill="#FF9900"/>
<path fill-rule="evenodd" clip-rule="evenodd" d="M19.83 21.5897C22.8537 21.5897 25.3049 19.1385 25.3049 16.1148C25.3049 13.0911 22.8537 10.6399 19.83 10.6399C16.8063 10.6399 14.3551 13.0911 14.3551 16.1148C14.3551 19.1385 16.8063 21.5897 19.83 21.5897ZM19.83 24.5854C24.5081 24.5854 28.3006 20.793 28.3006 16.1148C28.3006 11.4366 24.5081 7.64419 19.83 7.64419C15.1518 7.64419 11.3594 11.4366 11.3594 16.1148C11.3594 20.793 15.1518 24.5854 19.83 24.5854Z" fill="white"/>
<path d="M18.2805 0H21.3795V8.16069H18.2805V0Z" fill="white"/>
</svg>
